<svg xmlns="http://www.w3.org/2000/svg" viewBox="0 0 500 500" width="100%" height="100%">
  <defs>
    <clipPath id="corte-circular-toon">
      <circle cx="250" cy="250" r="210" />
    </clipPath>
  </defs>

  <circle cx="250" cy="250" r="218" fill="none" stroke="#ffffff" stroke-width="16" />

  <g clip-path="url(#corte-circular-toon)">
    <circle cx="250" cy="250" r="210" fill="#1e1e24" />

    <rect x="230" y="20" width="40" height="460" fill="#4a4a5a" />
    <rect x="20" y="230" width="460" height="40" fill="#4a4a5a" />

    <circle cx="250" cy="250" r="190" fill="none" stroke="#d66838" stroke-width="28" />
    <circle cx="250" cy="250" r="204" fill="none" stroke="#1e1e24" stroke-width="3" />
    <circle cx="250" cy="250" r="176" fill="none" stroke="#1e1e24" stroke-width="3" />

    <circle cx="250" cy="250" r="140" fill="none" stroke="#e88048" stroke-width="14" />
    <circle cx="250" cy="250" r="100" fill="none" stroke="#d66838" stroke-width="10" />
    
    <circle cx="250" cy="250" r="147" fill="none" stroke="#1e1e24" stroke-width="2" />
    <circle cx="250" cy="250" r="133" fill="none" stroke="#1e1e24" stroke-width="2" />
    <circle cx="250" cy="250" r="105" fill="none" stroke="#1e1e24" stroke-width="2" />
    <circle cx="250" cy="250" r="95" fill="none" stroke="#1e1e24" stroke-width="2" />

    <circle cx="250" cy="250" r="60" fill="#32323d" stroke="#1e1e24" stroke-width="4" />

    <circle cx="250" cy="250" r="45" fill="none" stroke="#111115" stroke-width="3" />
    <path d="M 250 190 V 310 M 190 250 H 310" stroke="#111115" stroke-width="4" />

    <circle cx="250" cy="250" r="24" fill="#e88048" stroke="#1e1e24" stroke-width="3" />
    <circle cx="242" cy="242" r="5" fill="#ffffff" />

    <polygon points="250,110 264,135 250,160 236,135" fill="#e88048" stroke="#1e1e24" stroke-width="3" />
    <polygon points="250,390 264,365 250,340 236,365" fill="#e88048" stroke="#1e1e24" stroke-width="3" />
    <polygon points="390,250 365,264 340,250 365,236" fill="#e88048" stroke="#1e1e24" stroke-width="3" />
    <polygon points="110,250 135,264 160,250 135,236" fill="#e88048" stroke="#1e1e24" stroke-width="3" />
  </g>
</svg>
